<svg width="137" height="40" viewBox="0 0 137 40" fill="none" xmlns="http://www.w3.org/2000/svg">
<path d="M48.462 26.1415C46.734 26.1415 45.384 25.7215 44.412 24.8815C43.44 24.0295 42.924 22.8235 42.864 21.2635C42.852 20.9155 42.846 20.3635 42.846 19.6075C42.846 18.8515 42.852 18.2995 42.864 17.9515C42.924 16.4275 43.446 15.2515 44.43 14.4235C45.426 13.5955 46.77 13.1815 48.462 13.1815C49.602 13.1815 50.592 13.3675 51.432 13.7395C52.284 14.1115 52.932 14.5855 53.376 15.1615C53.832 15.7375 54.072 16.3315 54.096 16.9435C54.096 17.0515 54.054 17.1415 53.97 17.2135C53.898 17.2855 53.808 17.3215 53.7 17.3215H51.072C50.952 17.3215 50.856 17.3035 50.784 17.2675C50.712 17.2315 50.652 17.1655 50.604 17.0695C50.448 16.7215 50.202 16.4215 49.866 16.1695C49.53 15.9055 49.062 15.7735 48.462 15.7735C47.034 15.7735 46.284 16.5295 46.212 18.0415C46.2 18.3775 46.194 18.8995 46.194 19.6075C46.194 20.3035 46.2 20.8255 46.212 21.1735C46.284 22.7575 47.052 23.5495 48.516 23.5495C49.224 23.5495 49.788 23.3695 50.208 23.0095C50.64 22.6375 50.856 22.0735 50.856 21.3175V20.9755H49.164C49.032 20.9755 48.924 20.9335 48.84 20.8495C48.756 20.7535 48.714 20.6395 48.714 20.5075V19.1755C48.714 19.0435 48.756 18.9355 48.84 18.8515C48.924 18.7555 49.032 18.7075 49.164 18.7075H53.7C53.832 18.7075 53.94 18.7555 54.024 18.8515C54.108 18.9355 54.15 19.0435 54.15 19.1755V21.2275C54.15 22.2475 53.916 23.1295 53.448 23.8735C52.98 24.6055 52.314 25.1695 51.45 25.5655C50.598 25.9495 49.602 26.1415 48.462 26.1415ZM60.4451 26.1415C58.9571 26.1415 57.8111 25.7875 57.0071 25.0795C56.2031 24.3715 55.7651 23.3755 55.6931 22.0915C55.6811 21.9355 55.6751 21.6655 55.6751 21.2815C55.6751 20.8975 55.6811 20.6275 55.6931 20.4715C55.7651 19.1995 56.2151 18.2095 57.0431 17.5015C57.8711 16.7815 59.0051 16.4215 60.4451 16.4215C61.8971 16.4215 63.0371 16.7815 63.8651 17.5015C64.6931 18.2095 65.1431 19.1995 65.2151 20.4715C65.2271 20.6275 65.2331 20.8975 65.2331 21.2815C65.2331 21.6655 65.2271 21.9355 65.2151 22.0915C65.1431 23.3755 64.7051 24.3715 63.9011 25.0795C63.0971 25.7875 61.9451 26.1415 60.4451 26.1415ZM60.4451 23.9455C60.9731 23.9455 61.3631 23.7895 61.6151 23.4775C61.8671 23.1535 62.0111 22.6615 62.0471 22.0015C62.0591 21.8815 62.0651 21.6415 62.0651 21.2815C62.0651 20.9215 62.0591 20.6815 62.0471 20.5615C62.0111 19.9135 61.8611 19.4275 61.5971 19.1035C61.3451 18.7795 60.9611 18.6175 60.4451 18.6175C59.4491 18.6175 58.9211 19.2655 58.8611 20.5615L58.8431 21.2815L58.8611 22.0015C58.8851 22.6615 59.0231 23.1535 59.2751 23.4775C59.5391 23.7895 59.9291 23.9455 60.4451 23.9455Z" fill="black"/>
<path d="M72.385 26.1415C70.669 26.1415 69.325 25.7275 68.353 24.8995C67.393 24.0595 66.883 22.8475 66.823 21.2635C66.811 20.9395 66.805 20.4115 66.805 19.6795C66.805 18.9355 66.811 18.3955 66.823 18.0595C66.883 16.4995 67.405 15.2995 68.389 14.4595C69.373 13.6075 70.705 13.1815 72.385 13.1815C73.441 13.1815 74.389 13.3615 75.229 13.7215C76.069 14.0695 76.729 14.5735 77.209 15.2335C77.701 15.8815 77.953 16.6435 77.965 17.5195V17.5555C77.965 17.6515 77.923 17.7355 77.839 17.8075C77.767 17.8675 77.683 17.8975 77.587 17.8975H75.157C75.001 17.8975 74.881 17.8675 74.797 17.8075C74.713 17.7355 74.641 17.6095 74.581 17.4295C74.413 16.8175 74.149 16.3915 73.789 16.1515C73.429 15.8995 72.955 15.7735 72.367 15.7735C70.951 15.7735 70.219 16.5655 70.171 18.1495C70.159 18.4735 70.153 18.9715 70.153 19.6435C70.153 20.3155 70.159 20.8255 70.171 21.1735C70.219 22.7575 70.951 23.5495 72.367 23.5495C72.955 23.5495 73.435 23.4235 73.807 23.1715C74.179 22.9075 74.437 22.4815 74.581 21.8935C74.629 21.7135 74.695 21.5935 74.779 21.5335C74.863 21.4615 74.989 21.4255 75.157 21.4255H77.587C77.695 21.4255 77.785 21.4615 77.857 21.5335C77.941 21.6055 77.977 21.6955 77.965 21.8035C77.953 22.6795 77.701 23.4475 77.209 24.1075C76.729 24.7555 76.069 25.2595 75.229 25.6195C74.389 25.9675 73.441 26.1415 72.385 26.1415ZM84.0877 26.1415C82.5997 26.1415 81.4537 25.7875 80.6497 25.0795C79.8457 24.3715 79.4077 23.3755 79.3357 22.0915C79.3237 21.9355 79.3177 21.6655 79.3177 21.2815C79.3177 20.8975 79.3237 20.6275 79.3357 20.4715C79.4077 19.1995 79.8577 18.2095 80.6857 17.5015C81.5137 16.7815 82.6477 16.4215 84.0877 16.4215C85.5397 16.4215 86.6797 16.7815 87.5077 17.5015C88.3357 18.2095 88.7857 19.1995 88.8577 20.4715C88.8697 20.6275 88.8757 20.8975 88.8757 21.2815C88.8757 21.6655 88.8697 21.9355 88.8577 22.0915C88.7857 23.3755 88.3477 24.3715 87.5437 25.0795C86.7397 25.7875 85.5877 26.1415 84.0877 26.1415ZM84.0877 23.9455C84.6157 23.9455 85.0057 23.7895 85.2577 23.4775C85.5097 23.1535 85.6537 22.6615 85.6897 22.0015C85.7017 21.8815 85.7077 21.6415 85.7077 21.2815C85.7077 20.9215 85.7017 20.6815 85.6897 20.5615C85.6537 19.9135 85.5037 19.4275 85.2397 19.1035C84.9877 18.7795 84.6037 18.6175 84.0877 18.6175C83.0917 18.6175 82.5637 19.2655 82.5037 20.5615L82.4857 21.2815L82.5037 22.0015C82.5277 22.6615 82.6657 23.1535 82.9177 23.4775C83.1817 23.7895 83.5717 23.9455 84.0877 23.9455ZM91.1136 25.9615C90.9816 25.9615 90.8736 25.9195 90.7896 25.8355C90.7056 25.7515 90.6636 25.6435 90.6636 25.5115V17.0515C90.6636 16.9195 90.7056 16.8115 90.7896 16.7275C90.8736 16.6435 90.9816 16.6015 91.1136 16.6015H93.1836C93.3156 16.6015 93.4236 16.6495 93.5076 16.7455C93.6036 16.8295 93.6516 16.9315 93.6516 17.0515V17.7715C94.3116 16.9915 95.1996 16.6015 96.3156 16.6015H97.1076C97.2396 16.6015 97.3476 16.6435 97.4316 16.7275C97.5156 16.8115 97.5576 16.9195 97.5576 17.0515V18.9055C97.5576 19.0255 97.5156 19.1335 97.4316 19.2295C97.3476 19.3135 97.2396 19.3555 97.1076 19.3555H95.3616C94.8696 19.3555 94.4856 19.4935 94.2096 19.7695C93.9456 20.0335 93.8136 20.4115 93.8136 20.9035V25.5115C93.8136 25.6435 93.7656 25.7515 93.6696 25.8355C93.5856 25.9195 93.4776 25.9615 93.3456 25.9615H91.1136ZM103.178 26.1415C101.69 26.1415 100.544 25.7875 99.7395 25.0795C98.9355 24.3715 98.4975 23.3755 98.4255 22.0915C98.4135 21.9355 98.4075 21.6655 98.4075 21.2815C98.4075 20.8975 98.4135 20.6275 98.4255 20.4715C98.4975 19.1995 98.9475 18.2095 99.7755 17.5015C100.604 16.7815 101.738 16.4215 103.178 16.4215C104.63 16.4215 105.77 16.7815 106.598 17.5015C107.426 18.2095 107.876 19.1995 107.948 20.4715C107.96 20.6275 107.966 20.8975 107.966 21.2815C107.966 21.6655 107.96 21.9355 107.948 22.0915C107.876 23.3755 107.438 24.3715 106.634 25.0795C105.83 25.7875 104.678 26.1415 103.178 26.1415ZM103.178 23.9455C103.706 23.9455 104.096 23.7895 104.348 23.4775C104.6 23.1535 104.744 22.6615 104.78 22.0015C104.792 21.8815 104.798 21.6415 104.798 21.2815C104.798 20.9215 104.792 20.6815 104.78 20.5615C104.744 19.9135 104.594 19.4275 104.33 19.1035C104.078 18.7795 103.694 18.6175 103.178 18.6175C102.182 18.6175 101.654 19.2655 101.594 20.5615L101.576 21.2815L101.594 22.0015C101.618 22.6615 101.756 23.1535 102.008 23.4775C102.272 23.7895 102.662 23.9455 103.178 23.9455ZM110.203 25.9615C110.071 25.9615 109.963 25.9195 109.879 25.8355C109.795 25.7515 109.753 25.6435 109.753 25.5115V17.0515C109.753 16.9195 109.795 16.8115 109.879 16.7275C109.963 16.6435 110.071 16.6015 110.203 16.6015H112.273C112.405 16.6015 112.513 16.6435 112.597 16.7275C112.693 16.8115 112.741 16.9195 112.741 17.0515V17.7355C113.065 17.3395 113.479 17.0215 113.983 16.7815C114.499 16.5415 115.081 16.4215 115.729 16.4215C116.785 16.4215 117.643 16.7815 118.303 17.5015C118.963 18.2095 119.293 19.2055 119.293 20.4895V25.5115C119.293 25.6315 119.251 25.7395 119.167 25.8355C119.083 25.9195 118.975 25.9615 118.843 25.9615H116.575C116.455 25.9615 116.347 25.9195 116.251 25.8355C116.167 25.7395 116.125 25.6315 116.125 25.5115V20.5975C116.125 20.0335 115.987 19.6015 115.711 19.3015C115.435 18.9895 115.039 18.8335 114.523 18.8335C114.019 18.8335 113.623 18.9895 113.335 19.3015C113.047 19.6015 112.903 20.0335 112.903 20.5975V25.5115C112.903 25.6315 112.861 25.7395 112.777 25.8355C112.693 25.9195 112.585 25.9615 112.453 25.9615H110.203ZM124.128 26.1415C123.492 26.1415 122.91 26.0215 122.382 25.7815C121.866 25.5295 121.458 25.1935 121.158 24.7735C120.87 24.3415 120.726 23.8675 120.726 23.3515C120.726 22.5235 121.062 21.8575 121.734 21.3535C122.418 20.8495 123.354 20.5015 124.542 20.3095L126.792 19.9675V19.7155C126.792 19.2595 126.696 18.9235 126.504 18.7075C126.312 18.4915 125.988 18.3835 125.532 18.3835C125.256 18.3835 125.028 18.4315 124.848 18.5275C124.668 18.6235 124.482 18.7555 124.29 18.9235C124.122 19.0675 123.996 19.1635 123.912 19.2115C123.876 19.3075 123.81 19.3555 123.714 19.3555H121.752C121.632 19.3555 121.53 19.3195 121.446 19.2475C121.374 19.1635 121.344 19.0675 121.356 18.9595C121.368 18.6355 121.524 18.2755 121.824 17.8795C122.136 17.4835 122.604 17.1415 123.228 16.8535C123.864 16.5655 124.644 16.4215 125.568 16.4215C127.044 16.4215 128.136 16.7515 128.844 17.4115C129.552 18.0595 129.906 18.9355 129.906 20.0395V25.5115C129.906 25.6315 129.864 25.7395 129.78 25.8355C129.696 25.9195 129.588 25.9615 129.456 25.9615H127.368C127.248 25.9615 127.14 25.9195 127.044 25.8355C126.96 25.7395 126.918 25.6315 126.918 25.5115V24.8815C126.654 25.2535 126.282 25.5595 125.802 25.7995C125.334 26.0275 124.776 26.1415 124.128 26.1415ZM124.974 24.0895C125.526 24.0895 125.97 23.9095 126.306 23.5495C126.654 23.1895 126.828 22.6615 126.828 21.9655V21.7135L125.298 21.9835C124.218 22.1755 123.678 22.5535 123.678 23.1175C123.678 23.4175 123.804 23.6575 124.056 23.8375C124.308 24.0055 124.614 24.0895 124.974 24.0895Z" fill="#EC5863"/>
<path d="M14.2208 4.98869C15.6455 4.48917 17.2113 5.16285 17.7174 6.49273C18.1048 7.51091 17.7581 8.61769 16.9363 9.30529L17.3804 10.5163L18.0869 11.3316C18.2482 11.5182 18.4928 11.6074 18.738 11.5772C19.3991 11.4959 20.056 11.4928 20.6993 11.5604C20.9173 11.5836 21.1342 11.5116 21.2907 11.3595L21.8005 10.8661L22.1764 9.77185C21.8566 9.33293 21.7483 8.75165 21.9379 8.19933C22.2597 7.26306 23.3107 6.77916 24.2454 7.16256C25.0506 7.49245 25.4887 8.38808 25.253 9.22153C25.1032 9.75239 24.7242 10.15 24.2576 10.3468L23.8415 11.5594L23.9364 12.2276C23.969 12.4573 24.1054 12.6579 24.3047 12.7782C24.9746 13.1847 25.5899 13.6817 26.1301 14.2562C26.3116 14.4496 26.5824 14.5325 26.8427 14.4801L28.1825 14.2111L29.6961 13.3717C29.7039 12.6274 30.1017 11.9079 30.8019 11.5195C31.8606 10.9326 33.2014 11.327 33.7655 12.4024C34.2748 13.3725 33.9551 14.592 33.0327 15.1892C32.3124 15.6547 31.4335 15.6377 30.7551 15.2402L29.2325 16.084L28.3823 16.9871C28.1541 17.2294 28.0728 17.572 28.1599 17.8928C28.1604 17.8947 28.1607 17.896 28.1612 17.8979C28.3102 18.4507 28.4006 19.0063 28.438 19.557C28.4597 19.8851 28.6454 20.1803 28.9362 20.3371L30.0459 20.9353L32.2454 21.35C32.6331 21.0124 33.1672 20.8491 33.713 20.9515C34.6915 21.1363 35.3215 22.1048 35.0708 23.0797C34.8551 23.9145 34.0325 24.4703 33.1723 24.3609C32.5857 24.2863 32.1121 23.9338 31.8578 23.4598L29.6441 23.0427L28.2787 23.2089C28.027 23.24 27.8072 23.3975 27.7046 23.628C27.296 24.5379 26.7323 25.3748 26.0364 26.0973C25.8634 26.2768 25.7985 26.5338 25.8613 26.7744L26.2006 28.0843L27.0384 29.3942C27.9599 29.2563 28.9188 29.6536 29.4508 30.4856C30.1659 31.6034 29.8415 33.0834 28.7285 33.8046C27.6161 34.5257 26.1023 34.2119 25.3732 33.1081C24.8627 32.3353 24.8571 31.382 25.2709 30.6257L24.3815 29.2354L23.288 28.3384C23.1261 28.2048 22.9054 28.1695 22.7078 28.2397C22.4885 28.3178 22.2649 28.3876 22.0362 28.4485C20.7935 28.7796 19.5406 28.8223 18.3489 28.6198C18.1742 28.5905 17.9955 28.6402 17.8619 28.7557L17.2751 29.2642L16.8386 30.336C17.1339 30.7923 17.2093 31.3783 16.9894 31.919C16.6156 32.8366 15.5392 33.2616 14.6276 32.8274C13.8425 32.4535 13.4548 31.535 13.7366 30.7157C13.916 30.1939 14.3158 29.8178 14.7928 29.6473L15.2763 28.4594L15.1865 27.4161C14.3146 26.8717 13.5388 26.1731 12.9044 25.3474L11.4132 25.4942L10.0175 26.1823C10.0266 27.1158 9.54482 28.0039 8.69918 28.4338C7.50426 29.0407 6.03648 28.5034 5.42117 27.2331C4.80604 25.9634 5.27521 24.4421 6.47012 23.8352C7.36433 23.3809 8.41073 23.5673 9.13879 24.2224L10.455 23.573L11.3685 22.5962C11.4282 22.5323 11.4503 22.4424 11.4276 22.3584L11.4273 22.3571C11.0051 20.7902 11.0482 19.2063 11.4718 17.7506C11.4945 17.6707 11.4774 17.5846 11.4235 17.521L10.6355 16.5826L8.93758 15.6942C8.46992 15.8994 7.9155 15.8988 7.42793 15.6434C6.54711 15.182 6.22972 14.0748 6.75476 13.2157C7.2157 12.4624 8.19747 12.1764 8.99469 12.5626C9.51073 12.8124 9.84362 13.2797 9.94203 13.7966L11.6399 14.6849L12.8484 14.7983C12.9323 14.8064 13.0141 14.7711 13.0674 14.7061C13.6155 14.0312 14.268 13.4354 15.0092 12.9467C15.2126 12.8119 15.339 12.5886 15.3422 12.3453L15.3547 11.2518L14.881 9.96133C13.8541 9.88759 12.9251 9.26768 12.557 8.30058C12.0509 6.97071 12.7959 5.48757 14.2208 4.98869Z" fill="#EC5863"/>
<path d="M25.9898 18.4765C25.0729 15.0737 21.5559 13.0542 18.1342 13.966C14.7125 14.8778 12.6819 18.3756 13.5988 21.7785C14.5156 25.1813 18.0327 27.2008 21.4543 26.289C24.876 25.3772 26.9066 21.8794 25.9898 18.4765Z" fill="#F58A97"/>
<path d="M20.9484 24.4109C17.8476 25.2372 14.6687 23.6565 13.4173 20.8204C13.4527 21.1391 13.5128 21.4592 13.5988 21.7785C14.5156 25.1814 18.0326 27.2008 21.4543 26.289C24.8761 25.3771 26.9066 21.8795 25.9898 18.4765C25.9037 18.1573 25.7949 17.8502 25.6653 17.5566C26.0073 20.635 24.049 23.5847 20.9484 24.4109Z" fill="#F07281"/>
<path d="M11.324 33.496C11.0629 32.5269 10.0614 31.9518 9.08698 32.2115C8.11258 32.4711 7.53433 33.4672 7.79542 34.4362C8.05651 35.4053 9.05807 35.9804 10.0325 35.7207C11.0069 35.4611 11.5851 34.465 11.324 33.496Z" fill="#EB5569"/>
<path d="M34.1106 27.9379C33.9381 27.2979 33.2766 26.918 32.633 27.0895C31.9894 27.261 31.6074 27.9189 31.7799 28.559C31.9523 29.1991 32.6139 29.5789 33.2575 29.4074C33.9011 29.2359 34.283 28.578 34.1106 27.9379Z" fill="#EB5569"/>
<path d="M30.8429 6.00213C30.5889 5.05936 29.6145 4.49988 28.6665 4.75249C27.7185 5.0051 27.1559 5.97416 27.4099 6.91693C27.6639 7.8597 28.6383 8.41918 29.5863 8.16656C30.5343 7.91395 31.0969 6.9449 30.8429 6.00213Z" fill="#EB5569"/>
<path d="M20.1955 22.0477C19.9587 21.1687 19.0502 20.6471 18.1664 20.8826C17.2826 21.1181 16.7581 22.0216 16.9949 22.9005C17.2318 23.7795 18.1402 24.3011 19.024 24.0656C19.9078 23.8301 20.4323 22.9266 20.1955 22.0477Z" fill="#EB5569"/>
<path d="M24.3108 19.5818C24.1496 18.9835 23.5313 18.6285 22.9297 18.7888C22.3281 18.9491 21.9711 19.564 22.1323 20.1623C22.2935 20.7606 22.9119 21.1156 23.5134 20.9553C24.115 20.795 24.472 20.18 24.3108 19.5818Z" fill="#EB5569"/>
<path d="M19.9578 17.0961C19.8224 16.5937 19.3032 16.2956 18.7981 16.4302C18.2929 16.5648 17.9931 17.0812 18.1285 17.5835C18.2639 18.0859 18.7831 18.384 19.2882 18.2494C19.7934 18.1148 20.0932 17.5984 19.9578 17.0961Z" fill="#EB5569"/>
</svg>
